<?xml version="1.0" standalone="no"?>
<!DOCTYPE svg PUBLIC "-//W3C//DTD SVG 20010904//EN"
 "http://www.w3.org/TR/2001/REC-SVG-20010904/DTD/svg10.dtd">
<svg version="1.0" xmlns="http://www.w3.org/2000/svg"
 width="1024.000000pt" height="1024.000000pt" viewBox="0 0 1024.000000 1024.000000"
 preserveAspectRatio="xMidYMid meet">
<metadata>
Created by potrace 1.14, written by Peter Selinger 2001-2017
</metadata>
<g transform="translate(0.000000,1024.000000) scale(0.100000,-0.100000)"
fill="#000000" stroke="none">
<path d="M2418 10235 c-2 -3 -20 -7 -39 -9 -19 -3 -50 -8 -69 -11 -19 -4 -39
-8 -45 -9 -5 -1 -16 -5 -22 -9 -7 -5 -13 -6 -13 -3 0 11 -176 -57 -255 -97
-127 -65 -231 -143 -337 -251 -59 -60 -171 -210 -191 -256 -7 -14 -14 -27 -17
-30 -6 -5 -71 -148 -75 -165 -1 -5 -5 -17 -8 -25 -5 -12 -27 -88 -32 -110 -30
-135 -30 -80 -30 -4145 0 -2200 4 -4013 8 -4030 5 -16 10 -43 13 -60 2 -16 7
-39 11 -50 4 -11 8 -26 9 -32 6 -35 48 -152 71 -197 94 -188 199 -325 334
-438 24 -21 50 -43 57 -49 28 -23 132 -89 141 -89 5 0 11 -3 13 -8 5 -11 181
-88 184 -80 0 2 7 -2 15 -8 8 -7 30 -15 49 -19 19 -4 39 -10 45 -13 5 -3 18
-7 30 -9 11 -1 58 -9 105 -17 74 -13 439 -15 2790 -13 2446 2 2711 4 2763 18
32 9 59 17 60 17 8 0 95 24 107 29 8 3 20 7 25 8 17 4 160 69 165 75 3 3 16
10 30 17 40 17 182 123 245 181 148 138 264 317 335 517 17 50 31 91 31 93 -1
1 -1 3 0 5 1 5 7 33 13 62 3 17 9 41 13 55 4 14 9 1361 10 2994 l3 2968 -20
-5 c-11 -3 -22 -1 -25 4 -3 4 -16 4 -30 -1 -15 -6 -27 -6 -30 0 -3 5 -15 6
-28 1 -12 -5 -34 -5 -49 0 -16 4 -28 4 -28 -1 0 -6 -10 -6 -25 0 -15 6 -26 6
-30 -1 -4 -5 -11 -6 -17 -3 -10 6 -99 9 -123 4 -5 -1 -14 -1 -20 0 -11 2 -180
2 -180 0 0 -1 -17 -2 -38 -3 -20 -1 -37 0 -37 3 0 3 -38 5 -85 5 -47 0 -85 -3
-85 -7 0 -4 -6 -5 -12 -3 -23 9 -109 11 -114 3 -3 -5 -13 -4 -23 1 -10 6 -23
6 -31 1 -8 -5 -21 -5 -30 0 -9 5 -22 5 -30 0 -7 -4 -18 -6 -24 -4 -21 8 -107
10 -112 2 -3 -4 -14 -4 -26 1 -12 4 -37 5 -55 1 -18 -5 -33 -4 -33 0 0 5 -13
5 -30 0 -16 -5 -30 -6 -30 -2 0 4 -38 7 -85 7 -47 0 -85 -2 -85 -5 0 -3 -16
-5 -35 -5 -19 0 -35 2 -35 5 0 3 -38 5 -85 5 -47 0 -85 -3 -85 -7 0 -4 -6 -5
-12 -3 -22 9 -108 11 -108 4 0 -4 -13 -4 -30 1 -17 5 -30 5 -30 0 0 -5 -13 -5
-30 0 -18 5 -30 5 -30 0 0 -6 -10 -6 -25 0 -15 6 -27 6 -30 0 -3 -6 -15 -6
-30 0 -15 6 -27 6 -30 0 -4 -6 -13 -7 -24 -1 -9 5 -23 6 -30 1 -8 -4 -27 -4
-42 0 -17 5 -29 5 -29 0 0 -6 -10 -6 -25 0 -15 6 -26 6 -30 -1 -4 -5 -11 -6
-17 -3 -10 6 -99 9 -123 4 -5 -1 -12 -2 -15 -1 -3 1 -41 3 -85 5 -44 2 -93 7
-110 11 -16 4 -37 8 -45 10 -8 2 -16 4 -17 5 -2 2 -6 3 -10 4 -5 1 -25 10 -47
19 -21 9 -40 17 -42 17 -2 0 -28 16 -57 36 -63 44 -157 134 -157 152 0 6 -4
12 -10 12 -5 0 -28 38 -50 84 -51 105 -58 132 -65 249 -2 38 -6 71 -9 74 -3 3
-1 13 4 22 5 10 5 23 0 31 -5 8 -5 21 0 30 5 9 5 22 0 30 -5 8 -5 21 0 30 5 9
5 22 0 30 -5 8 -5 21 0 30 5 9 5 22 0 30 -5 8 -5 21 0 30 5 9 5 22 0 30 -5 8
-5 21 0 30 5 9 5 22 0 30 -5 8 -5 21 0 30 5 9 5 22 0 29 -4 8 -4 27 0 42 5 16
5 29 0 29 -5 0 -5 13 0 30 5 17 6 30 2 30 -8 0 -7 84 1 97 3 5 2 15 -3 23 -4
7 -4 24 0 36 6 14 5 26 0 29 -5 3 -5 18 0 35 5 16 5 32 0 35 -5 3 -5 19 0 35
5 17 5 32 0 35 -5 3 -5 16 0 30 6 15 6 27 0 30 -6 4 -7 13 -1 24 5 9 6 23 1
31 -4 7 -4 24 0 36 6 14 5 26 0 29 -5 3 -5 18 0 35 5 16 5 32 0 35 -5 3 -5 19
0 35 5 17 5 32 0 35 -5 3 -6 16 -2 28 8 25 8 69 -1 83 -3 6 -2 16 3 24 5 8 5
21 0 30 -5 9 -5 22 0 29 4 8 4 27 0 42 -5 16 -5 29 0 29 5 0 5 13 0 30 -5 17
-5 30 0 30 5 0 5 13 0 30 -5 17 -5 30 0 30 5 0 5 13 0 30 -5 17 -5 30 0 30 5
0 5 13 0 30 -5 17 -5 32 0 35 5 3 5 16 0 30 -6 15 -6 27 0 30 5 3 6 15 1 28
-5 12 -5 34 0 49 4 16 4 28 -1 28 -5 0 -5 13 0 30 5 17 5 30 0 30 -5 0 -5 13
0 30 5 17 5 30 0 30 -5 0 -5 13 0 30 5 17 5 30 0 30 -5 0 -5 13 0 30 5 17 5
30 0 30 -5 0 -5 13 0 30 5 17 5 30 0 30 -5 0 -5 13 0 30 5 17 5 30 0 30 -5 0
-5 13 0 30 5 17 5 30 0 30 -5 0 -5 13 0 30 5 17 5 30 0 30 -5 0 -5 13 0 30 5
17 5 30 0 30 -5 0 -5 13 0 30 5 17 5 30 1 30 -4 0 -6 14 -3 30 l4 30 -1669 0
c-919 0 -1672 -3 -1675 -5z m222 -4475 c7 5 23 5 34 0 11 -4 33 -4 48 1 16 4
28 4 28 -1 0 -4 15 -5 33 -1 17 4 47 4 65 0 18 -3 35 -3 38 2 2 4 15 4 28 -1
12 -4 29 -4 36 0 8 5 21 5 29 0 8 -4 25 -4 37 0 12 5 24 6 27 3 3 -3 39 -7 79
-9 85 -4 155 -16 248 -44 25 -8 47 -14 50 -14 28 -5 171 -80 252 -133 68 -44
238 -202 238 -221 0 -5 7 -12 15 -16 8 -3 15 -12 15 -21 0 -8 4 -15 8 -15 8 0
112 -172 112 -185 0 -4 6 -21 14 -38 58 -128 86 -284 81 -457 -2 -69 -6 -137
-9 -152 -3 -16 -8 -38 -11 -50 -30 -149 -97 -297 -198 -438 -47 -65 -214 -230
-233 -230 -8 0 -14 -3 -14 -8 0 -12 -172 -112 -194 -112 -8 0 -16 -4 -18 -8
-4 -10 -161 -60 -213 -68 -22 -3 -44 -8 -49 -11 -5 -3 -51 -7 -103 -9 -52 -1
-97 -5 -100 -7 -2 -3 -18 -1 -34 3 -16 5 -31 5 -33 1 -3 -4 -18 -6 -34 -3 -23
3 -30 0 -35 -17 -3 -12 -2 -19 3 -16 4 3 4 -11 0 -30 -4 -19 -4 -37 1 -40 4
-3 4 -17 -1 -30 -6 -15 -6 -27 0 -30 5 -3 6 -15 0 -29 -4 -12 -4 -29 0 -36 5
-8 5 -21 0 -30 -5 -9 -5 -22 0 -30 5 -8 5 -21 0 -30 -5 -9 -5 -22 0 -30 5 -8
5 -21 0 -30 -5 -9 -5 -22 0 -30 5 -8 5 -21 0 -30 -5 -9 -5 -22 0 -30 5 -8 5
-21 0 -30 -5 -9 -5 -22 0 -30 5 -8 5 -21 0 -30 -5 -9 -5 -22 0 -30 4 -7 7 -18
5 -24 -2 -6 -6 -31 -9 -56 -12 -92 -40 -148 -104 -207 -57 -53 -117 -76 -202
-78 -72 -2 -86 1 -157 32 -46 20 -114 90 -143 148 -24 49 -28 84 -30 280 -1
63 -1 131 -1 145 0 8 0 40 0 70 0 30 0 61 0 68 2 28 2 43 2 172 0 74 0 142 0
150 0 8 0 44 0 80 -1 36 -1 108 -1 160 -1 52 -1 100 -1 105 0 6 0 33 0 60 0
28 0 57 0 65 0 8 0 38 0 65 0 81 0 86 0 170 0 44 0 112 0 150 1 39 1 97 0 130
0 33 0 66 0 73 0 6 0 68 0 137 0 69 0 133 0 143 0 9 0 37 0 62 0 25 0 52 0 60
0 8 0 40 0 70 0 30 0 61 0 68 2 23 2 47 2 142 -1 52 4 113 9 135 5 22 9 41 9
43 0 1 8 19 18 39 39 83 142 156 240 169 26 3 49 7 51 9 2 2 16 0 31 -5 16 -4
34 -4 41 0z m2237 1 c13 5 25 4 28 -1 3 -5 18 -5 35 0 17 5 30 6 30 2 0 -4 16
-7 35 -7 19 0 35 3 35 7 0 4 12 3 28 0 15 -4 38 -7 52 -6 38 3 73 4 90 3 8 0
26 0 40 1 63 4 194 -11 266 -30 222 -60 412 -189 540 -367 47 -65 124 -211
124 -236 0 -7 3 -17 7 -21 4 -3 8 -12 10 -19 1 -7 10 -41 19 -77 9 -36 17
-111 17 -167 1 -57 5 -103 9 -103 4 0 3 -13 -2 -30 -5 -16 -6 -30 -2 -30 4 0
7 -16 7 -35 0 -19 -2 -35 -5 -35 -3 0 -5 -16 -5 -35 0 -19 2 -35 5 -35 3 0 3
-27 0 -60 -3 -33 -3 -60 1 -60 4 0 4 -13 -1 -30 -5 -16 -6 -30 -2 -30 4 0 7
-16 7 -35 0 -19 -2 -35 -5 -35 -3 0 -5 -16 -5 -35 0 -19 2 -35 5 -35 3 0 3
-27 0 -60 -3 -33 -3 -60 1 -60 4 0 4 -13 -1 -30 -5 -16 -6 -30 -2 -30 4 0 7
-16 7 -35 0 -19 -2 -35 -5 -35 -3 0 -5 -16 -5 -35 0 -19 2 -35 6 -35 3 0 2
-25 -1 -55 -3 -30 -4 -55 -1 -55 7 0 4 -124 -3 -152 -2 -10 0 -18 4 -18 5 0 5
-13 0 -30 -5 -19 -5 -30 1 -30 6 0 8 -4 5 -9 -3 -4 -8 -50 -11 -100 -2 -51 -7
-96 -10 -101 -3 -5 -7 -21 -9 -37 -27 -190 -201 -453 -386 -580 -88 -60 -232
-128 -293 -137 -7 -1 -18 -5 -25 -10 -7 -4 -16 -6 -19 -3 -3 3 -17 1 -32 -4
-14 -6 -57 -12 -94 -13 -37 -2 -70 -6 -73 -9 -3 -3 -19 -1 -35 3 -16 5 -29 5
-29 0 0 -5 -13 -5 -29 0 -16 4 -32 6 -35 3 -7 -8 -105 -7 -113 1 -3 3 -13 1
-22 -4 -10 -5 -23 -5 -31 0 -8 5 -21 5 -30 0 -9 -5 -22 -5 -30 0 -8 5 -21 5
-30 0 -9 -5 -22 -5 -30 0 -7 4 -23 4 -36 0 -12 -5 -24 -6 -28 -3 -3 3 -28 7
-55 9 -57 4 -130 37 -177 80 -33 31 -74 87 -78 107 -2 7 -7 20 -11 31 -4 10
-8 45 -9 77 -1 32 -4 59 -8 59 -4 0 -3 14 2 30 5 17 5 30 0 30 -5 0 -5 13 0
30 5 17 5 30 0 30 -5 0 -5 13 0 30 5 17 5 30 0 30 -5 0 -5 13 0 30 5 17 5 30
0 30 -5 0 -5 13 0 30 5 17 5 30 0 30 -5 0 -5 13 0 29 4 15 4 34 0 42 -5 7 -5
20 0 28 4 9 4 23 0 31 -5 9 -5 22 0 30 5 8 5 21 0 30 -5 9 -5 22 0 30 5 8 5
21 0 30 -5 9 -5 22 0 29 4 8 4 27 0 42 -5 16 -5 29 0 29 5 0 5 13 0 30 -5 17
-5 30 0 30 5 0 5 13 0 29 -4 15 -4 34 0 42 5 7 5 20 0 29 -5 9 -5 22 0 30 4 7
5 20 2 29 -3 8 -6 27 -6 41 0 14 3 33 6 41 3 9 2 22 -2 29 -5 7 -4 24 0 36 6
14 5 26 0 29 -5 3 -5 18 0 35 5 16 5 32 0 35 -5 3 -5 19 0 35 5 17 5 32 0 35
-5 3 -5 16 0 30 6 15 6 27 0 30 -6 4 -7 13 -1 24 5 9 6 23 1 31 -4 7 -4 24 0
36 6 14 5 26 0 29 -5 3 -5 18 0 35 5 16 5 32 0 35 -5 3 -5 19 0 35 5 18 5 32
-1 36 -5 3 -7 10 -4 15 9 13 11 99 3 99 -4 0 -3 14 2 30 5 17 5 30 0 30 -5 0
-5 13 0 30 5 17 5 30 0 30 -5 0 -5 13 0 30 5 17 5 30 0 30 -5 0 -5 13 0 30 5
17 5 30 0 30 -5 0 -5 13 0 30 5 17 5 30 0 30 -5 0 -5 13 0 30 5 17 5 32 0 35
-5 3 -5 16 0 30 6 15 6 27 0 30 -5 3 -6 15 0 29 4 12 4 29 0 36 -5 8 -5 21 0
30 5 9 5 22 0 30 -5 8 -5 21 0 30 5 9 5 22 0 30 -5 8 -5 21 0 30 5 9 5 22 0
30 -5 8 -5 21 0 30 5 9 5 22 0 30 -5 8 -5 21 0 31 5 9 7 19 3 22 -6 6 -6 51
-2 132 2 45 31 136 51 161 48 60 128 120 170 128 13 3 23 5 23 6 0 2 17 4 38
5 21 1 40 5 43 8 3 3 16 2 27 -2 12 -5 32 -5 44 0z m2283 -1 c15 4 33 4 40 0
7 -4 25 -4 40 0 15 4 33 4 40 0 7 -4 25 -4 40 0 15 4 33 4 40 0 7 -4 25 -4 40
0 15 4 33 4 40 0 7 -4 25 -4 40 0 15 4 33 4 40 0 7 -4 25 -4 40 0 15 4 33 4
40 0 7 -4 24 -5 39 -1 25 7 85 5 107 -3 6 -2 17 0 24 4 7 5 23 5 35 0 12 -5
28 -5 35 0 7 5 23 5 34 0 12 -4 30 -4 41 0 11 4 24 5 29 3 4 -3 36 -7 70 -8
61 -2 74 -5 133 -31 46 -21 114 -91 143 -149 34 -70 34 -197 0 -270 -48 -99
-157 -176 -252 -179 -26 0 -48 -3 -48 -6 0 -3 -25 -5 -55 -5 -30 0 -55 3 -55
7 0 4 -10 4 -22 -1 -13 -5 -33 -5 -45 0 -14 5 -23 5 -23 -1 0 -5 -12 -5 -30 0
-16 5 -30 6 -30 2 0 -4 -25 -7 -55 -7 -30 0 -55 3 -55 7 0 4 -13 3 -30 -2 -18
-5 -30 -5 -30 0 0 6 -10 6 -25 0 -15 -6 -27 -6 -30 0 -3 6 -15 6 -30 0 -15 -6
-27 -6 -30 1 -4 6 -13 6 -23 0 -10 -6 -23 -6 -34 0 -10 5 -18 7 -18 4 0 -10
-3 -20 -11 -42 -5 -13 -4 -25 1 -28 6 -3 6 -15 0 -30 -5 -14 -5 -27 0 -30 5
-3 5 -18 0 -35 -5 -16 -5 -32 0 -35 5 -3 5 -19 0 -35 -5 -17 -5 -32 0 -35 5
-3 6 -16 2 -28 -4 -12 -6 -35 -5 -52 2 -16 3 -36 3 -42 0 -7 0 -20 0 -28 0 -8
0 -22 0 -30 0 -8 0 -22 0 -30 0 -8 0 -22 0 -30 0 -8 0 -22 0 -30 0 -8 0 -22 0
-30 0 -8 0 -21 -1 -27 -1 -28 9 -53 20 -50 12 2 44 3 71 1 8 0 26 0 40 0 14 1
32 1 40 0 8 0 26 0 40 0 14 0 36 1 50 1 14 0 58 2 98 3 39 1 72 -1 72 -4 0 -3
19 -3 43 0 23 4 59 4 80 0 20 -3 37 -3 37 1 0 13 146 -12 189 -33 94 -46 167
-147 175 -244 2 -26 5 -52 6 -58 1 -5 1 -12 0 -15 -1 -3 -4 -18 -6 -34 -14
-81 -92 -183 -169 -221 -48 -23 -51 -24 -140 -31 -38 -3 -73 -8 -77 -10 -5 -3
-8 -1 -8 4 0 5 -17 6 -40 2 -22 -4 -40 -4 -40 0 0 4 -18 4 -40 0 -23 -4 -40
-3 -40 2 0 5 -4 6 -10 3 -8 -5 -99 -7 -190 -4 -8 0 -49 0 -90 -1 -42 -1 -82 0
-90 2 -11 2 -15 -6 -15 -29 0 -17 -3 -29 -7 -26 -5 2 -4 -7 2 -21 5 -15 6 -28
0 -31 -5 -3 -6 -15 -1 -28 5 -12 5 -31 1 -42 -4 -11 -4 -27 1 -36 4 -8 4 -21
-1 -29 -5 -8 -5 -21 0 -30 5 -9 5 -22 0 -29 -4 -8 -4 -27 0 -42 5 -16 5 -29 0
-29 -5 0 -5 -13 0 -30 5 -17 5 -30 0 -30 -5 0 -5 -13 0 -29 4 -15 4 -34 0 -42
-5 -7 -5 -20 0 -29 5 -9 5 -22 0 -30 -4 -7 -5 -20 -2 -29 7 -19 7 -63 0 -82
-3 -9 -2 -22 2 -29 5 -7 4 -24 0 -36 -6 -14 -5 -26 0 -29 5 -3 5 -18 0 -35 -5
-16 -5 -32 0 -35 5 -3 5 -19 0 -35 -5 -18 -5 -32 1 -36 5 -3 7 -9 4 -14 -3 -5
-7 -35 -9 -68 -8 -109 -79 -213 -181 -262 -73 -34 -200 -34 -270 0 -102 51
-166 141 -182 255 -3 22 -7 42 -9 44 -2 2 1 11 6 20 5 10 5 23 0 31 -4 7 -4
24 0 36 6 14 5 26 0 29 -5 3 -5 18 0 35 5 16 5 32 0 35 -5 3 -5 19 0 35 5 18
5 32 -1 36 -5 3 -7 10 -4 15 9 13 11 99 3 99 -4 0 -3 14 2 30 5 17 6 30 2 30
-4 0 -7 16 -7 35 0 19 3 35 7 35 4 0 3 14 -2 30 -5 17 -5 30 0 30 5 0 5 13 0
30 -5 17 -5 30 0 30 5 0 5 13 0 30 -5 17 -5 30 0 30 5 0 5 13 0 30 -5 17 -5
30 0 30 5 0 5 13 0 29 -4 15 -4 34 0 42 5 7 5 20 0 28 -4 9 -4 23 0 31 5 9 5
22 1 29 -5 7 -5 30 -1 51 4 21 4 44 -1 51 -4 7 -4 20 1 28 4 9 4 23 0 31 -5 9
-5 22 0 29 4 8 4 27 0 42 -5 16 -5 29 0 29 5 0 5 13 0 30 -5 17 -5 30 0 30 5
0 5 13 0 30 -5 17 -5 30 0 30 5 0 5 13 0 30 -5 17 -5 30 0 30 5 0 5 13 0 30
-5 17 -6 30 -2 30 4 0 7 16 7 35 0 19 -3 35 -7 35 -4 0 -3 14 2 30 5 17 5 30
1 30 -4 0 -5 22 -1 50 3 27 3 55 -1 62 -4 7 -4 19 1 27 4 9 4 23 0 31 -5 9 -5
22 0 29 4 8 4 27 0 42 -5 16 -5 29 0 29 5 0 5 13 0 30 -5 17 -5 30 0 30 5 0 5
13 0 30 -5 17 -5 30 0 30 5 0 5 13 0 30 -5 17 -5 30 0 30 5 0 5 13 0 30 -5 17
-6 30 -2 30 4 0 7 16 7 35 0 19 -3 35 -7 35 -4 0 -3 14 2 30 5 17 5 30 1 30
-4 0 -5 22 -1 50 3 27 3 55 -1 62 -4 7 -4 19 1 27 4 9 4 23 0 31 -5 9 -5 22 0
29 4 8 4 27 0 42 -5 16 -5 29 0 29 5 0 5 13 0 30 -5 17 -5 30 0 30 4 0 5 12 1
27 -4 16 -1 53 6 86 20 83 57 139 137 205 29 24 100 44 165 48 35 2 66 6 69 8
3 3 12 2 20 -3 8 -5 27 -5 42 -1z"/>
<path d="M2921 5121 c-8 -5 -20 -7 -27 -4 -6 2 -15 0 -19 -6 -3 -6 -2 -11 4
-11 6 0 6 -11 1 -30 -5 -17 -5 -30 0 -30 5 0 5 -13 0 -30 -5 -17 -5 -30 0 -30
5 0 5 -13 0 -30 -5 -17 -5 -30 0 -30 5 0 5 -13 0 -29 -4 -16 -6 -32 -2 -35 7
-8 7 -68 0 -88 -4 -8 -2 -21 2 -28 5 -7 4 -24 0 -36 -6 -14 -5 -26 0 -29 5 -3
5 -18 0 -35 -5 -16 -5 -32 0 -35 5 -3 5 -19 0 -35 -5 -17 -5 -32 0 -35 5 -3 6
-16 2 -28 -8 -25 -8 -69 1 -83 3 -6 2 -16 -3 -24 -5 -8 -5 -21 0 -30 5 -9 5
-22 0 -30 -5 -8 -5 -21 0 -30 5 -9 5 -22 0 -30 -5 -8 -5 -21 1 -31 6 -11 5
-20 -1 -24 -6 -4 -7 -13 -1 -23 4 -9 6 -23 4 -29 -5 -14 3 -14 127 -15 59 0
79 2 145 16 39 8 111 39 142 63 17 12 34 23 37 23 8 0 57 51 92 98 58 74 84
149 89 249 2 28 6 56 10 62 3 6 2 11 -2 11 -5 0 -9 8 -9 18 -3 86 -58 203
-132 278 -59 62 -162 119 -236 131 -16 2 -38 8 -49 12 -12 5 -36 5 -54 1 -18
-5 -35 -4 -38 1 -3 4 -16 4 -29 -1 -14 -5 -27 -5 -32 0 -5 5 -15 5 -23 1z"/>
<path d="M5132 5119 c-13 -5 -21 -13 -17 -19 6 -10 7 -53 3 -168 -2 -39 -1
-72 2 -72 3 0 3 -27 0 -60 -3 -33 -3 -60 0 -60 3 0 3 -27 0 -60 -3 -33 -3 -60
0 -60 3 0 3 -27 0 -60 -3 -33 -3 -60 0 -60 3 0 3 -27 0 -60 -3 -33 -3 -60 0
-60 3 0 3 -27 0 -60 -3 -33 -3 -60 0 -60 3 0 3 -27 0 -60 -3 -33 -3 -60 0 -60
3 0 3 -27 0 -60 -3 -33 -3 -60 0 -60 3 0 3 -27 0 -60 -3 -33 -3 -60 0 -60 3 0
3 -27 0 -60 -3 -33 -3 -60 0 -60 3 0 3 -27 0 -60 -3 -33 -3 -60 0 -60 3 0 3
-27 0 -60 -3 -33 -3 -60 0 -60 3 0 3 -27 0 -60 -3 -33 -3 -60 0 -60 3 0 3 -25
0 -55 -3 -31 -4 -58 -1 -61 3 -2 4 -27 2 -54 l-2 -50 30 4 c17 2 31 0 31 -5 0
-4 14 -4 30 1 17 5 30 5 30 0 0 -5 13 -5 30 0 19 5 30 5 30 -1 0 -6 6 -6 18 0
9 5 20 9 25 10 4 1 8 1 10 2 1 0 12 2 25 5 46 8 114 60 170 128 32 39 51 125
49 221 -1 52 0 95 3 95 3 0 3 28 0 63 -3 34 -3 87 0 117 3 30 3 81 0 113 -3
31 -2 57 3 57 4 0 6 4 3 9 -3 5 -6 62 -6 127 0 66 0 160 -1 209 0 50 0 101 1
115 1 14 2 30 2 35 -1 27 -3 198 -3 255 0 36 -1 74 -3 85 -22 143 -145 263
-277 268 -27 1 -49 5 -49 9 0 4 -11 3 -25 -2 -15 -6 -25 -6 -25 0 0 5 -12 5
-29 0 -17 -4 -31 -5 -33 0 -2 4 -13 4 -26 -1z"/>
<path d="M6399 10209 c-2 -88 -1 -160 4 -165 3 -3 1 -19 -3 -35 -5 -16 -5 -31
0 -34 5 -3 5 -16 0 -30 -6 -15 -6 -27 0 -30 6 -4 7 -13 1 -24 -5 -9 -6 -23 -1
-31 4 -7 4 -24 0 -36 -6 -14 -5 -26 0 -29 5 -3 5 -18 0 -35 -5 -16 -5 -32 0
-35 5 -3 5 -19 0 -35 -5 -17 -5 -32 0 -35 5 -3 5 -16 0 -30 -6 -15 -6 -27 0
-30 6 -4 7 -13 1 -24 -5 -9 -6 -23 -1 -31 4 -7 4 -24 0 -36 -6 -14 -5 -26 0
-29 5 -3 5 -18 0 -35 -5 -16 -5 -32 0 -35 5 -3 5 -19 0 -35 -5 -17 -5 -32 0
-35 5 -3 5 -16 0 -30 -6 -15 -6 -27 0 -30 6 -4 7 -13 1 -24 -5 -9 -6 -23 -1
-31 4 -7 4 -24 0 -36 -6 -14 -5 -26 0 -29 5 -3 5 -18 0 -35 -5 -16 -5 -32 0
-35 5 -3 5 -19 0 -35 -5 -17 -5 -32 0 -35 5 -3 6 -16 2 -28 -8 -25 -8 -69 1
-83 3 -6 2 -16 -3 -24 -5 -8 -5 -21 0 -30 5 -9 5 -22 0 -30 -5 -8 -5 -21 0
-30 5 -9 5 -22 0 -30 -5 -8 -5 -21 0 -30 5 -9 5 -22 0 -30 -5 -8 -5 -21 0 -30
5 -9 5 -22 0 -30 -5 -8 -5 -21 0 -30 5 -9 5 -22 0 -30 -5 -8 -5 -21 0 -30 5
-9 5 -22 0 -30 -5 -8 -5 -21 0 -30 5 -9 5 -22 0 -30 -5 -8 -5 -21 0 -30 5 -9
5 -22 0 -30 -5 -8 -5 -21 0 -30 5 -9 5 -22 0 -30 -5 -8 -5 -21 0 -30 5 -9 5
-22 0 -30 -5 -8 -5 -21 0 -30 5 -9 5 -22 0 -30 -5 -8 -5 -21 0 -30 5 -9 5 -22
0 -30 -5 -8 -5 -21 0 -30 5 -9 5 -22 0 -30 -5 -8 -5 -21 0 -30 5 -9 5 -22 0
-30 -5 -8 -5 -21 0 -30 5 -9 5 -22 0 -30 -5 -8 -5 -21 0 -30 5 -9 5 -22 0 -30
-5 -8 -5 -21 0 -30 5 -9 5 -22 0 -30 -5 -8 -5 -21 0 -30 5 -9 5 -22 0 -30 -5
-8 -5 -21 1 -31 6 -11 5 -20 -1 -24 -5 -3 -6 -15 -1 -28 4 -12 6 -27 4 -34 -3
-9 4 -10 26 -3 17 5 31 6 31 2 0 -4 34 -7 75 -7 41 0 75 3 75 7 0 4 13 3 30
-2 17 -5 32 -5 35 0 3 5 16 5 28 1 12 -5 34 -5 49 0 16 4 28 5 28 1 0 -4 34
-7 75 -7 41 0 75 3 75 7 0 4 13 3 30 -2 17 -5 32 -5 35 0 3 5 16 5 28 1 12 -5
34 -5 49 0 16 4 28 5 28 1 0 -4 34 -7 75 -7 41 0 75 3 75 7 0 4 13 3 30 -2 17
-5 32 -5 35 0 3 5 16 5 28 1 12 -5 34 -5 49 0 16 4 28 5 28 1 0 -4 34 -7 75
-7 41 0 75 3 75 7 0 4 13 3 29 -2 16 -4 32 -6 35 -3 7 8 101 7 113 0 5 -3 15
-2 23 3 8 5 21 5 30 0 9 -5 22 -5 29 0 8 4 27 4 42 0 16 -5 29 -5 29 0 0 5 13
5 30 0 17 -5 30 -5 30 0 0 5 13 5 30 0 17 -5 30 -5 30 0 0 5 13 5 30 0 17 -5
30 -5 30 0 0 5 13 5 30 0 17 -5 30 -5 30 0 0 5 13 5 30 0 17 -5 30 -5 30 0 0
5 13 5 30 0 17 -5 30 -5 30 0 0 5 13 5 30 0 17 -5 30 -5 30 0 0 5 13 5 30 0
17 -5 30 -5 30 0 0 5 13 5 30 0 17 -5 30 -5 30 0 0 5 13 5 30 0 17 -5 30 -5
30 0 0 5 13 5 30 0 17 -5 30 -5 30 0 0 5 13 5 30 0 17 -5 30 -5 30 0 0 5 13 5
30 0 17 -5 30 -5 30 0 0 5 13 5 30 0 17 -5 30 -5 30 0 0 5 13 5 30 0 17 -5 30
-5 30 0 0 5 13 5 30 0 17 -5 30 -5 30 0 0 5 12 5 28 1 26 -7 62 -4 62 5 0 4
-2475 2479 -2523 2523 l-27 24 -1 -24z"/>
</g>
</svg>
